<svg width="14" height="20" viewBox="0 0 14 20" fill="none" xmlns="http://www.w3.org/2000/svg">
<g clip-path="url(#clip0_416_124)">
<path d="M6.93787 0.861816C3.17368 0.861816 0.113281 3.92222 0.113281 7.6864C0.113281 9.64207 1.32166 12.508 2.72795 14.981C3.43174 16.2176 4.18756 17.3423 4.89263 18.1758C5.0803 18.398 5.26457 18.5981 5.44499 18.7764H0.539817C0.426693 18.7764 0.318202 18.8213 0.23821 18.9013C0.158219 18.9813 0.113281 19.0898 0.113281 19.2029C0.113281 19.316 0.158219 19.4245 0.23821 19.5045C0.318202 19.5845 0.426693 19.6294 0.539817 19.6294H13.3359C13.4491 19.6294 13.5576 19.5845 13.6375 19.5045C13.7175 19.4245 13.7625 19.316 13.7625 19.2029C13.7625 19.0898 13.7175 18.9813 13.6375 18.9013C13.5576 18.8213 13.4491 18.7764 13.3359 18.7764H8.43075C8.61117 18.5985 8.79501 18.398 8.98311 18.1758C9.68818 17.3423 10.444 16.2176 11.1474 14.981C12.5541 12.508 13.7625 9.64207 13.7625 7.6864C13.7625 3.92222 10.7021 0.861816 6.93787 0.861816ZM6.93787 1.71489C10.241 1.71489 12.9094 4.3833 12.9094 7.6864C12.9094 9.26459 11.7718 12.1565 10.4056 14.5583C9.72315 15.7595 8.9861 16.8514 8.33179 17.6251C8.00464 18.0116 7.69668 18.3187 7.44204 18.5153C7.18739 18.7119 6.98479 18.7764 6.93787 18.7764C6.89095 18.7764 6.68877 18.7124 6.4337 18.5153C6.17863 18.3183 5.87153 18.012 5.54437 17.6251C4.88964 16.8514 4.15301 15.7595 3.4697 14.5583C2.10393 12.1565 0.966354 9.26416 0.966354 7.6864C0.966354 4.3833 3.63477 1.71489 6.93787 1.71489Z" fill="#0E4A7D" fill-opacity="0.8"/>
<path d="M6.93737 5.55371C5.7644 5.55371 4.80469 6.51342 4.80469 7.68639C4.80469 8.85937 5.7644 9.81908 6.93737 9.81908C8.11035 9.81908 9.07005 8.85937 9.07005 7.68639C9.07005 6.51342 8.11035 5.55371 6.93737 5.55371ZM6.93737 6.40678C7.64926 6.40678 8.21698 6.9745 8.21698 7.68639C8.21698 8.39828 7.64926 8.966 6.93737 8.966C6.22548 8.966 5.65776 8.39828 5.65776 7.68639C5.65776 6.9745 6.22548 6.40678 6.93737 6.40678Z" fill="#0E4A7D" fill-opacity="0.8"/>
</g>
<defs>
<clipPath id="clip0_416_124">
<rect width="14" height="20" fill="white"/>
</clipPath>
</defs>
</svg>
