<svg width="24" height="25" viewBox="0 0 24 25" fill="none" xmlns="http://www.w3.org/2000/svg">
<path d="M6.01191 8.48476L6.01191 7.31584C6.01191 6.82089 6.41208 6.42072 6.9044 6.42336L17.1377 6.42072C17.6326 6.42072 18.0328 6.82089 18.0302 7.31321L18.0302 17.5491C18.0302 18.0441 17.63 18.4442 17.1377 18.4416L15.9688 18.4416C15.4686 18.4416 15.0658 18.0283 15.0763 17.5281L15.2263 11.3333L7.65998 18.8997C7.30983 19.2499 6.74643 19.2499 6.39629 18.8997L5.55382 18.0572C5.20367 17.7071 5.20367 17.1437 5.55382 16.7935L13.1202 9.22718L6.92546 9.37724C6.42261 9.39041 6.00928 8.9876 6.01191 8.48476Z" fill="#0E4A7D"/>
</svg>
